<?xml version="1.0" encoding="UTF-8"?>
<svg xmlns="http://www.w3.org/2000/svg" xmlns:xlink="http://www.w3.org/1999/xlink" width="24pt" height="24pt" viewBox="0 0 24 24" version="1.1">
<g id="surface1">
<path style=" stroke:none;fill-rule:nonzero;fill:#9AA2B1;fill-opacity:1;" d="M 1 4 L 1 8 L 7 8 L 7 4 Z M 9 4 L 9 8 L 15 8 L 15 4 Z M 17 4 L 17 8 L 23 8 L 23 4 Z M 1 10 L 1 14 L 7 14 L 7 10 Z M 9 10 L 9 14 L 15 14 L 15 10 Z M 17 10 L 17 14 L 23 14 L 23 10 Z M 1 16 L 1 20 L 7 20 L 7 16 Z M 9 16 L 9 20 L 15 20 L 15 16 Z M 17 16 L 17 20 L 23 20 L 23 16 Z "/>
</g>
</svg>
