<?xml version="1.0" encoding="UTF-8"?>
<svg xmlns="http://www.w3.org/2000/svg" xmlns:xlink="http://www.w3.org/1999/xlink" width="24pt" height="24pt" viewBox="0 0 24 24" version="1.1">
<g id="surface1">
<path style=" stroke:none;fill-rule:nonzero;fill:#9AA2B1;fill-opacity:1;" d="M 23 6 L 1 6 L 1 19 L 23 19 Z M 11 10 L 13 10 L 13 12 L 11 12 Z M 7 10 L 9 10 L 9 12 L 7 12 Z M 5 16 L 3 16 L 3 14 L 5 14 Z M 5 12 L 3 12 L 3 10 L 5 10 Z M 17 16 L 7 16 L 7 14 L 17 14 Z M 17 12 L 15 12 L 15 10 L 17 10 Z M 21 16 L 19 16 L 19 14 L 21 14 Z M 21 12 L 19 12 L 19 10 L 21 10 Z "/>
</g>
</svg>
