<?xml version="1.0" encoding="UTF-8"?>
<svg xmlns="http://www.w3.org/2000/svg" xmlns:xlink="http://www.w3.org/1999/xlink" width="24pt" height="24pt" viewBox="0 0 24 24" version="1.1">
<g id="surface1">
<path style=" stroke:none;fill-rule:nonzero;fill:#9AA2B1;fill-opacity:1;" d="M 12 0 C 11.449219 0 11 0.449219 11 1 C 11 1.550781 11.449219 2 12 2 C 12.550781 2 13 1.550781 13 1 C 13 0.449219 12.550781 0 12 0 Z M 4.222656 3.222656 C 3.671875 3.222656 3.222656 3.671875 3.222656 4.222656 C 3.222656 4.773438 3.671875 5.222656 4.222656 5.222656 C 4.773438 5.222656 5.222656 4.773438 5.222656 4.222656 C 5.222656 3.671875 4.773438 3.222656 4.222656 3.222656 Z M 19.777344 3.222656 C 19.226563 3.222656 18.777344 3.671875 18.777344 4.222656 C 18.777344 4.773438 19.226563 5.222656 19.777344 5.222656 C 20.328125 5.222656 20.777344 4.773438 20.777344 4.222656 C 20.777344 3.671875 20.328125 3.222656 19.777344 3.222656 Z M 11.878906 5 C 8.226563 5.066406 5.140625 8.089844 5.007813 11.738281 C 4.898438 14.632813 6.566406 17.152344 9 18.3125 L 9 23 L 15 23 L 15 18.3125 C 17.359375 17.1875 19 14.785156 19 12 C 19 8.097656 15.792969 4.933594 11.878906 5 Z M 1 11 C 0.449219 11 0 11.449219 0 12 C 0 12.550781 0.449219 13 1 13 C 1.550781 13 2 12.550781 2 12 C 2 11.449219 1.550781 11 1 11 Z M 23 11 C 22.449219 11 22 11.449219 22 12 C 22 12.550781 22.449219 13 23 13 C 23.550781 13 24 12.550781 24 12 C 24 11.449219 23.550781 11 23 11 Z M 4.222656 18.777344 C 3.671875 18.777344 3.222656 19.226563 3.222656 19.777344 C 3.222656 20.328125 3.671875 20.777344 4.222656 20.777344 C 4.773438 20.777344 5.222656 20.328125 5.222656 19.777344 C 5.222656 19.226563 4.773438 18.777344 4.222656 18.777344 Z M 19.777344 18.777344 C 19.226563 18.777344 18.777344 19.226563 18.777344 19.777344 C 18.777344 20.328125 19.226563 20.777344 19.777344 20.777344 C 20.328125 20.777344 20.777344 20.328125 20.777344 19.777344 C 20.777344 19.226563 20.328125 18.777344 19.777344 18.777344 Z "/>
</g>
</svg>
