<?xml version="1.0" encoding="utf-8"?>
<!-- Generator: Adobe Illustrator 24.0.2, SVG Export Plug-In . SVG Version: 6.00 Build 0)  -->
<svg version="1.1" id="logo" xmlns="http://www.w3.org/2000/svg" xmlns:xlink="http://www.w3.org/1999/xlink" x="0px" y="0px"
	 width="512px" height="512px" viewBox="0 0 512 512" style="enable-background:new 0 0 512 512;" xml:space="preserve">
<style type="text/css">
	.st0{fill:#FFFFFF;}
</style>
<path class="st0" d="M256,319c34.7383,0,63-28.2617,63-63s-28.2617-63-63-63h-63v63C193,290.7383,221.2617,319,256,319z"/>
<path class="st0" d="M117,117V41.001C86.622,60.6813,60.6813,86.622,41.001,117H117z"/>
<path class="st0" d="M256,0c-21.7407,0-42.8446,2.72-63,7.8208V117h63c76.6445,0,139,62.355,139,139c0,76.6445-62.3555,139-139,139
	c-76.645,0-139-62.3555-139-139v-63H7.8208C2.72,213.1554,0,234.2593,0,256c0,141.3849,114.6151,256,256,256s256-114.6151,256-256
	S397.3849,0,256,0z"/>
</svg>
