<?xml version="1.0" encoding="UTF-8"?>
<svg xmlns="http://www.w3.org/2000/svg" xmlns:xlink="http://www.w3.org/1999/xlink" width="24pt" height="24pt" viewBox="0 0 24 24" version="1.1">
<g id="surface1">
<path style=" stroke:none;fill-rule:nonzero;fill:#9AA2B1;fill-opacity:1;" d="M 9.679688 7.257813 L 11.09375 8.671875 L 13.515625 6.242188 C 14.765625 6.738281 13.398438 8.074219 13.703125 8.507813 C 13.96875 8.882813 14.675781 8.816406 15.636719 8.363281 C 16.089844 8.148438 16.398438 8.121094 16.566406 8.1875 C 17.746094 8.640625 14.585938 10.472656 15.636719 11.191406 C 15.804688 11.304688 16.398438 11.304688 17.082031 11.160156 L 15.335938 12.910156 L 16.75 14.324219 L 22 9.066406 L 14.929688 1.996094 Z M 6.621094 10.308594 C 5.839844 11.089844 5.839844 12.355469 6.617188 13.136719 L 7.382813 13.898438 C 7.761719 14.28125 7.773438 14.890625 7.40625 15.289063 C 7.132813 15.585938 6.824219 15.878906 6.617188 15.96875 C 5.835938 16.296875 4.351563 16.820313 3.4375 17.734375 C 2.070313 19.101563 1.59375 20.84375 2.375 21.625 C 3.15625 22.40625 4.898438 21.929688 6.265625 20.5625 C 7.179688 19.648438 7.703125 18.164063 8.03125 17.382813 C 8.121094 17.175781 8.414063 16.867188 8.710938 16.59375 C 9.105469 16.226563 9.71875 16.238281 10.101563 16.621094 L 10.863281 17.382813 C 11.644531 18.164063 12.910156 18.164063 13.691406 17.382813 L 15.535156 15.535156 L 8.464844 8.464844 Z M 5.203125 18.796875 C 5.597656 19.1875 5.597656 19.820313 5.203125 20.210938 C 4.816406 20.601563 4.179688 20.601563 3.789063 20.210938 C 3.398438 19.820313 3.402344 19.1875 3.789063 18.796875 C 4.183594 18.40625 4.816406 18.40625 5.203125 18.796875 Z "/>
</g>
</svg>
