<?xml version="1.0" encoding="UTF-8"?>
<svg xmlns="http://www.w3.org/2000/svg" xmlns:xlink="http://www.w3.org/1999/xlink" width="24pt" height="24pt" viewBox="0 0 24 24" version="1.1">
<g id="surface1">
<path style=" stroke:none;fill-rule:nonzero;fill:#9AA2B1;fill-opacity:1;" d="M 9 2 L 9 7 L 12 8.5 L 12 10 L 5 10 L 5 11 L 3 11 L 3 14 L 5 14 L 5 15 C 5.914063 15 6.578125 15.878906 6.3125 16.75 C 6.136719 17.316406 6 17.945313 6 18.5 L 6 22 L 9 22 L 9 17.296875 C 9 15 11 15 11 15 L 18 15 L 18 10 L 14 10 L 14 8.5 L 17 7 L 17 2 Z M 11 4 L 15 4 L 15 5.765625 L 13.105469 6.710938 L 13 6.765625 L 12.894531 6.710938 L 11 5.765625 Z M 19 10 L 19 15 L 21 15 L 21 10 Z M 11 16 C 11 17.988281 12 19 12 19 L 13.160156 18.003906 C 13.160156 18.003906 12.5 17.226563 12.5 16 Z "/>
</g>
</svg>
