<?xml version="1.0" encoding="UTF-8"?>
<svg xmlns="http://www.w3.org/2000/svg" xmlns:xlink="http://www.w3.org/1999/xlink" width="24pt" height="24pt" viewBox="0 0 24 24" version="1.1">
<g id="surface1">
<path style=" stroke:none;fill-rule:nonzero;fill:#9AA2B1;fill-opacity:1;" d="M 18.359375 2 C 17.425781 2 16.496094 2.355469 15.785156 3.070313 L 13.132813 5.71875 L 12.207031 4.792969 L 10.792969 6.207031 L 11.71875 7.132813 L 11.777344 7.195313 C 11.09375 7.851563 7.066406 11.71875 6.101563 12.6875 C 5.261719 13.523438 4.769531 14.199219 4.480469 14.828125 C 4.191406 15.453125 4.140625 16.019531 4.109375 16.402344 C 4.078125 16.78125 4.066406 16.976563 3.914063 17.3125 C 3.765625 17.644531 3.4375 18.140625 2.703125 18.878906 L 2.007813 19.589844 L 4.40625 21.984375 L 5.109375 21.300781 C 6.503906 19.957031 6.769531 20.054688 7.5625 19.953125 C 7.957031 19.90625 8.515625 19.824219 9.140625 19.527344 C 9.769531 19.226563 10.453125 18.734375 11.304688 17.910156 L 11.308594 17.90625 L 11.3125 17.898438 C 12.292969 16.917969 16.347656 13.027344 16.992188 12.40625 L 17.792969 13.207031 L 19.207031 11.792969 L 18.28125 10.867188 L 20.933594 8.214844 C 22.355469 6.789063 22.355469 4.492188 20.933594 3.070313 C 20.21875 2.355469 19.289063 2 18.359375 2 Z M 13.191406 8.609375 C 13.191406 8.605469 13.191406 8.609375 13.191406 8.609375 L 15.578125 10.992188 C 14.90625 11.636719 10.953125 15.429688 9.898438 16.484375 C 9.160156 17.199219 8.644531 17.546875 8.28125 17.71875 C 7.914063 17.894531 7.6875 17.921875 7.3125 17.96875 C 6.828125 18.03125 6.09375 18.300781 5.25 18.785156 C 5.378906 18.582031 5.648438 18.324219 5.734375 18.136719 C 6.023438 17.503906 6.074219 16.941406 6.101563 16.5625 C 6.132813 16.183594 6.144531 15.992188 6.296875 15.660156 C 6.453125 15.328125 6.78125 14.835938 7.515625 14.097656 C 8.398438 13.21875 12.535156 9.242188 13.191406 8.609375 Z "/>
</g>
</svg>
