<?xml version="1.0" encoding="UTF-8"?>
<svg xmlns="http://www.w3.org/2000/svg" xmlns:xlink="http://www.w3.org/1999/xlink" width="24pt" height="24pt" viewBox="0 0 24 24" version="1.1">
<g id="surface1">
<path style=" stroke:none;fill-rule:nonzero;fill:#9AA2B1;fill-opacity:1;" d="M 5 3 C 3.90625 3 3 3.90625 3 5 L 3 7 L 5 7 L 5 5 L 7 5 L 7 3 Z M 9 3 L 9 5 L 11 5 L 11 3 Z M 13 3 L 13 5 L 15 5 L 15 3 Z M 17 3 L 17 5 L 19 5 L 19 7 L 21 7 L 21 5 C 21 3.90625 20.09375 3 19 3 Z M 3 9 L 3 11 L 5 11 L 5 9 Z M 19 9 L 19 11 L 21 11 L 21 9 Z M 20.988281 12.886719 L 18.988281 12.894531 L 19 15.003906 L 21 14.996094 Z M 3 13 L 3 15 L 5 15 L 5 13 Z M 3 17 L 3 19 C 3 20.09375 3.90625 21 5 21 L 7 21 L 7 19 L 5 19 L 5 17 Z M 19 17 L 19 19 L 17 19 L 17 21 L 19 21 C 20.09375 21 21 20.09375 21 19 L 21 17 Z M 9 19 L 9 21 L 11 21 L 11 19 Z M 13 19 L 13 21 L 15 21 L 15 19 Z "/>
</g>
</svg>
